<svg width="300" height="300" viewBox="0 0 300 300" fill="none" xmlns="http://www.w3.org/2000/svg">
<circle cx="150" cy="150" r="150" fill="#B6509E"/>
<circle cx="150" cy="150" r="150" fill="url(#paint0_linear)"/>
<path d="M214.26 81.5V205.4H237.36V218H176.46V205.4H199.56V95.99L171.42 112.16L165.12 101.45L199.56 81.5H214.26Z" fill="white"/>
<path d="M143.433 82.9537C144.83 79.1133 149.077 77.1331 152.917 78.5309V78.5309C156.758 79.9288 158.738 84.1752 157.34 88.0156L112.438 211.382C111.041 215.223 106.794 217.203 102.954 215.805V215.805C99.1133 214.407 97.1332 210.161 98.531 206.32L143.433 82.9537Z" fill="white"/>
<path d="M53.9094 87.8594C52.5276 84.0132 54.5254 79.7751 58.3716 78.3932V78.3932C62.2178 77.0114 66.456 79.0092 67.8378 82.8554L112.227 206.407C113.609 210.253 111.611 214.492 107.765 215.873V215.873C103.918 217.255 99.6801 215.258 98.2983 211.411L53.9094 87.8594Z" fill="white"/>
<defs>
<linearGradient id="paint0_linear" x1="150" y1="0" x2="150" y2="300" gradientUnits="userSpaceOnUse">
<stop stop-color="#2EBAC6"/>
<stop offset="1" stop-color="white" stop-opacity="0"/>
</linearGradient>
</defs>
</svg>
