<svg width="300" height="300" viewBox="0 0 300 300" fill="none" xmlns="http://www.w3.org/2000/svg">
<circle cx="150" cy="150" r="150" fill="#B6509E"/>
<circle cx="150" cy="150" r="150" fill="url(#paint0_linear)"/>
<path d="M168.9 218V205.4L208.8 148.91C209.36 148.21 210.41 146.74 211.95 144.5C213.49 142.26 214.61 140.65 215.31 139.67C216.01 138.69 216.99 137.22 218.25 135.26C219.51 133.3 220.42 131.76 220.98 130.64C221.68 129.38 222.38 127.98 223.08 126.44C224.48 123.64 225.18 120.91 225.18 118.25V106.91C225.18 101.87 223.5 97.95 220.14 95.15C216.92 92.35 212.02 90.95 205.44 90.95C198.86 90.95 193.89 92.35 190.53 95.15C187.31 97.95 185.7 101.87 185.7 106.91V125.6H171V107.75C171 88.15 182.27 78.35 204.81 78.35C216.57 78.35 225.32 80.94 231.06 86.12C236.94 91.16 239.88 98.37 239.88 107.75V118.25C239.88 123.01 238.34 128.26 235.26 134C232.32 139.6 227.28 147.51 220.14 157.73L186.75 205.4H239.67V218H168.9Z" fill="white"/>
<path d="M143.433 82.9537C144.83 79.1133 149.077 77.1331 152.917 78.5309V78.5309C156.758 79.9288 158.738 84.1752 157.34 88.0156L112.438 211.382C111.041 215.223 106.794 217.203 102.954 215.805V215.805C99.1133 214.407 97.1332 210.161 98.531 206.32L143.433 82.9537Z" fill="white"/>
<path d="M53.9094 87.8594C52.5276 84.0132 54.5254 79.7751 58.3716 78.3932V78.3932C62.2178 77.0114 66.456 79.0092 67.8378 82.8554L112.227 206.407C113.609 210.253 111.611 214.492 107.765 215.873V215.873C103.918 217.255 99.6801 215.258 98.2983 211.411L53.9094 87.8594Z" fill="white"/>
<defs>
<linearGradient id="paint0_linear" x1="150" y1="0" x2="150" y2="300" gradientUnits="userSpaceOnUse">
<stop stop-color="#2EBAC6"/>
<stop offset="1" stop-color="white" stop-opacity="0"/>
</linearGradient>
</defs>
</svg>
