<svg width="732" height="733" viewBox="0 0 732 733" fill="none"
    xmlns="http://www.w3.org/2000/svg">
    <g filter="url(#filter0_d)">
        <path d="M136.116 93.9756C284.192 -30.275 504.956 -10.9606 629.207 137.116C753.457 285.192 734.143 505.956 586.067 630.207C437.991 754.457 217.226 735.143 92.9756 587.067C-31.275 438.991 -11.9606 218.226 136.116 93.9756Z" fill="#B6509E"/>
        <path d="M136.116 93.9756C284.192 -30.275 504.956 -10.9606 629.207 137.116C753.457 285.192 734.143 505.956 586.067 630.207C437.991 754.457 217.226 735.143 92.9756 587.067C-31.275 438.991 -11.9606 218.226 136.116 93.9756Z" fill="url(#paint0_linear)"/>
        <path d="M324.989 179.231C328.277 166.961 340.888 159.679 353.158 162.967C365.428 166.255 372.709 178.867 369.422 191.136L274.001 547.251C270.713 559.521 258.102 566.802 245.832 563.514C233.562 560.227 226.281 547.615 229.568 535.345L324.989 179.231Z" fill="white"/>
        <path d="M257.616 370.014C244.913 370.014 234.616 359.717 234.616 347.014C234.616 334.312 244.913 324.014 257.616 324.014H341.616H425.616C438.318 324.014 448.616 334.312 448.616 347.014C448.616 359.717 438.318 370.014 425.616 370.014H257.616Z" fill="white"/>
        <path d="M295.616 203.014C282.913 203.014 272.616 192.717 272.616 180.014C272.616 167.312 282.913 157.014 295.616 157.014H395.616H495.616C508.318 157.014 518.616 167.312 518.616 180.014C518.616 192.717 508.318 203.014 495.616 203.014H295.616Z" fill="white"/>
        <rect x="-358.5" y="-149.5" width="1439" height="1023" stroke="black"/>
    </g>
    <defs>
        <filter id="filter0_d" x="-363" y="-150" width="1448" height="1032" filterUnits="userSpaceOnUse" color-interpolation-filters="sRGB">
            <feFlood flood-opacity="0" result="BackgroundImageFix"/>
            <feColorMatrix in="SourceAlpha" type="matrix" values="0 0 0 0 0 0 0 0 0 0 0 0 0 0 0 0 0 0 127 0"/>
            <feOffset dy="4"/>
            <feGaussianBlur stdDeviation="2"/>
            <feColorMatrix type="matrix" values="0 0 0 0 0 0 0 0 0 0 0 0 0 0 0 0 0 0 0.25 0"/>
            <feBlend mode="normal" in2="BackgroundImageFix" result="effect1_dropShadow"/>
            <feBlend mode="normal" in="SourceGraphic" in2="effect1_dropShadow" result="shape"/>
        </filter>
        <linearGradient id="paint0_linear" x1="84.5911" y1="572.081" x2="620.822" y2="122.13" gradientUnits="userSpaceOnUse">
            <stop stop-color="#2EBAC6"/>
            <stop offset="0.188597" stop-color="#44C1CC" stop-opacity="0.896718"/>
            <stop offset="0.624554" stop-color="#C0EAEE" stop-opacity="0.303453"/>
            <stop offset="1" stop-color="white" stop-opacity="0"/>
        </linearGradient>
    </defs>
</svg>
